# xmcd
# 
# Track frame offsets:
#     150
#     15427
#     30617
#     46020
#     59232
#     73852
#     90865
#     109585
#     131450
#     151532
#     165990
# 
# Disc length: 2465
# 
# Revision: 22
# Processed by: cddbd v1.5.2PL0 Copyright (c) Steve Scherf et al.
# Submitted via: fre:ac v1.0.31
# 
DISCID=78099f0b
DTITLE=Deana Carter - Did I Shave My Legs For This?
DYEAR=1996
DGENRE=Country
TTITLE0=I've Loved Enough To Know
TTITLE1=We Danced Anyway
TTITLE2=Count Me In
TTITLE3=If This Is Love
TTITLE4=Love Ain't Worth Making
TTITLE5=Before We Ever Heard Goodbye
TTITLE6=How Do I Get There
TTITLE7=Strawberry Wine
TTITLE8=That's How You Know It's Love
TTITLE9=Did I Shave My Legs For This?
TTITLE10=To The Other Side
EXTD=YEAR: 1996
EXTT0=
EXTT1=
EXTT2=
EXTT3=
EXTT4=
EXTT5=
EXTT6=
EXTT7=
EXTT8=
EXTT9=
EXTT10=
PLAYORDER=
